<?xml version="1.0" encoding="UTF-8"?>
<svg version="1.1" xmlns="http://www.w3.org/2000/svg" width="32" height="32">
<path d="M0 0 C4.40608743 2.16298837 7.1987497 4.39680479 9 9 C9.68426057 14.04325384 9.5739862 17.83076884 7.3125 22.4375 C4.28115306 25.79656012 2.25860352 27.69355631 -2.33203125 28.31640625 C-8.04951809 28.58213652 -11.60250453 27.96847152 -16 24 C-19.38570467 20.16286804 -19.51291172 16.36598538 -19.3515625 11.4375 C-18.67904883 6.77473854 -16.30117669 4.14809708 -12.875 1.125 C-8.55651358 -0.56484251 -4.5732948 -0.65960983 0 0 Z " fill="#E2D9CB" transform="translate(21,2)"/>
<path d="M0 0 C3.55247432 0.87379409 4.94828114 2.4927342 6.9375 5.4765625 C7.88402726 9.63123083 7.32597293 12.6289852 5.5625 16.4765625 C2.08496895 19.12610996 -0.41680936 19.19379885 -4.7109375 18.953125 C-7.0625 18.4765625 -7.0625 18.4765625 -9.6875 16.4765625 C-11.45097293 12.6289852 -12.00902726 9.63123083 -11.0625 5.4765625 C-8.05531939 0.96579158 -5.26030565 -0.3785826 0 0 Z " fill="#7F7A61" transform="translate(18.0625,6.5234375)"/>
<path d="M0 0 C4.40608743 2.16298837 7.1987497 4.39680479 9 9 C9.68426057 14.04325384 9.5739862 17.83076884 7.3125 22.4375 C4.28115306 25.79656012 2.25860352 27.69355631 -2.33203125 28.31640625 C-8.04951809 28.58213652 -11.60250453 27.96847152 -16 24 C-19.38570467 20.16286804 -19.51291172 16.36598538 -19.3515625 11.4375 C-18.67904883 6.77473854 -16.30117669 4.14809708 -12.875 1.125 C-8.55651358 -0.56484251 -4.5732948 -0.65960983 0 0 Z M-16 7 C-17.86233425 10.72466849 -17.57130829 14.94495313 -17 19 C-15.3279253 22.12578143 -13.2143765 24.39281175 -10 26 C-5.90842645 26.51512617 -1.76410454 26.94367269 1.95703125 24.953125 C4.85592636 22.55501226 6.79811835 20.60351712 7.2734375 16.828125 C7.52638764 10.67269333 7.52638764 10.67269333 4.625 5.4375 C0.59378368 1.6942277 -2.09480059 1.60962982 -7.44921875 1.640625 C-11.55868504 2.21960034 -13.21349577 3.99914929 -16 7 Z " fill="#333D3F" transform="translate(21,2)"/>
<path d="M0 0 C3.64626587 0.20835805 5.00957126 1.00829509 7.8125 3.4375 C10.48913931 6.96386607 10.7145991 10.25281762 10.4921875 14.58984375 C9.6721787 18.60528368 8.0561307 20.29115688 5 23 C2.6875 23.875 2.6875 23.875 1 24 C1 23.34 1 22.68 1 22 C-0.98 22 -2.96 22 -5 22 C-5 21.67 -5 21.34 -5 21 C-3.1128125 20.87625 -3.1128125 20.87625 -1.1875 20.75 C1.58665204 20.38174973 2.75822521 20.18888655 5 18.4375 C6.45194397 14.89838657 6.68041465 11.76547653 6 8 C4.58333333 5.41666667 4.58333333 5.41666667 2 4 C-1.64721696 3.19234122 -1.64721696 3.19234122 -5 3 C-5 2.67 -5 2.34 -5 2 C-3.35 2 -1.7 2 0 2 C0 1.34 0 0.68 0 0 Z " fill="#DAD3C5" transform="translate(18,4)"/>
<path d="M0 0 C2.64 0 5.28 0 8 0 C8 2.64 8 5.28 8 8 C5.03 8 2.06 8 -1 8 C-1.125 2.25 -1.125 2.25 0 0 Z " fill="#30994B" transform="translate(12,14)"/>
<path d="M0 0 C5.01319327 -0.35666988 8.85303903 -0.56305357 13.4375 1.6875 C16.86498432 4.7805956 18.84736937 6.79194361 19.17578125 11.54296875 C19.18633374 14.03687327 19.13055302 16.50982206 19 19 C18.67 19 18.34 19 18 19 C17.98582031 18.41992188 17.97164062 17.83984375 17.95703125 17.2421875 C17.58405966 11.13351767 16.44761335 8.24074761 12 4 C8.44827496 1.42806118 4.25822915 1.42582292 0 1 C0 0.67 0 0.34 0 0 Z " fill="#212D31" transform="translate(11,2)"/>
<path d="M0 0 C0.90105469 0.01804688 1.80210938 0.03609375 2.73046875 0.0546875 C3.41753906 0.07789063 4.10460937 0.10109375 4.8125 0.125 C4.8125 0.455 4.8125 0.785 4.8125 1.125 C3.81669922 1.23714844 3.81669922 1.23714844 2.80078125 1.3515625 C-1.84133067 2.04279668 -4.58427074 2.62025715 -8.25 5.6875 C-10.62087408 9.8938895 -11.07102798 13.36023544 -11.1875 18.125 C-11.5175 18.125 -11.8475 18.125 -12.1875 18.125 C-12.55058044 13.02170273 -12.77027658 9.25036167 -10.375 4.625 C-7.00320888 0.77152444 -4.98744219 -0.12954395 0 0 Z " fill="#313B3E" transform="translate(14.1875,2.875)"/>
<path d="M0 0 C0.33 0 0.66 0 1 0 C1.62757528 9.9540412 1.62757528 9.9540412 -0.875 14.125 C-4.25616806 17.10838359 -6.19214411 17.11404484 -10.625 17.0625 C-11.62789062 17.05347656 -12.63078125 17.04445313 -13.6640625 17.03515625 C-14.43492188 17.02355469 -15.20578125 17.01195313 -16 17 C-16 16.67 -16 16.34 -16 16 C-15.11248047 15.96132813 -15.11248047 15.96132813 -14.20703125 15.921875 C-8.95018101 15.54454807 -5.82251643 14.94197007 -2 11 C-0.85185003 8.70370006 -0.69230191 6.92301914 -0.4375 4.375 C-0.35371094 3.55773437 -0.26992188 2.74046875 -0.18359375 1.8984375 C-0.12300781 1.27195312 -0.06242187 0.64546875 0 0 Z " fill="#4A5152" transform="translate(28,12)"/>
<path d="M0 0 C2.96175123 0.61277612 4.38058783 1.25372522 7 3 C8.9896995 3.39013716 10.99019869 3.73202649 13 4 C13 4.66 13 5.32 13 6 C5.78287462 6.48929664 5.78287462 6.48929664 2 4.125 C0 2 0 2 0 0 Z " fill="#ECE2D3" transform="translate(6,22)"/>
<path d="M0 0 C0.33 0 0.66 0 1 0 C1.33 2.97 1.66 5.94 2 9 C-1.35661695 10.67830848 -4.36135594 9.6353188 -8 9 C-8.33 8.34 -8.66 7.68 -9 7 C-6.03 7 -3.06 7 0 7 C0 4.69 0 2.38 0 0 Z " fill="#85B490" transform="translate(20,15)"/>
<path d="M0 0 C3 -0.375 3 -0.375 6 0 C6.66 0.99 7.32 1.98 8 3 C4.7 3 1.4 3 -2 3 C-1.34 2.01 -0.68 1.02 0 0 Z " fill="#263235" transform="translate(13,10)"/>
<path d="M0 0 C1.32 0.33 2.64 0.66 4 1 C3.67 3.64 3.34 6.28 3 9 C1.5 7.875 1.5 7.875 0 6 C-0.1875 2.8125 -0.1875 2.8125 0 0 Z " fill="#C0B287" transform="translate(8,13)"/>
</svg>
